<svg width="23" height="23" viewBox="0 0 23 23" fill="none" xmlns="http://www.w3.org/2000/svg">
<ellipse cx="11.5" cy="11.486" rx="11.5" ry="11.486" fill="#CA0100"/>
<path d="M11.5 5.99268C8.46718 5.99268 6 8.45686 6 11.486C6 14.5151 8.46718 16.9793 11.5 16.9793C14.5328 16.9793 17 14.5151 17 11.486C17 8.45686 14.5328 5.99268 11.5 5.99268ZM14.1157 14.3274C14.0263 14.4166 13.909 14.4616 13.7917 14.4616C13.6744 14.4616 13.557 14.4166 13.4677 14.3274L11.176 12.0385C11.0898 11.953 11.0417 11.8366 11.0417 11.7149V8.73934C11.0417 8.4862 11.247 8.28159 11.5 8.28159C11.753 8.28159 11.9583 8.4862 11.9583 8.73934V11.5254L14.1157 13.6801C14.2949 13.8592 14.2949 14.1484 14.1157 14.3274Z" fill="white"/>
</svg>
