<svg width="23" height="24" viewBox="0 0 23 24" fill="none" xmlns="http://www.w3.org/2000/svg">
<ellipse cx="11.5" cy="11.5544" rx="11.5" ry="11.486" fill="#CA0100"/>
<g clip-path="url(#clip0_1905_23008)">
<path d="M15.7982 14.1723L14.4083 12.7822C14.1315 12.5065 13.673 12.5149 13.3865 12.8015L12.6863 13.5015C12.642 13.4772 12.5963 13.4517 12.5481 13.4247C12.1059 13.1797 11.5007 12.8438 10.8638 12.2065C10.2251 11.5678 9.88894 10.9617 9.64317 10.5192C9.61724 10.4723 9.59239 10.4271 9.56785 10.3842L10.0378 9.91494L10.2689 9.6836C10.5558 9.3966 10.5637 8.93827 10.2875 8.66173L8.89761 7.27151C8.62141 6.99537 8.16274 7.00375 7.87582 7.29075L7.48409 7.68472L7.4948 7.69535C7.36345 7.86295 7.25369 8.05625 7.17201 8.26471C7.09671 8.46313 7.04983 8.65248 7.0284 8.84221C6.84487 10.3637 7.54015 11.7542 9.42704 13.6411C12.0353 16.2492 14.1372 16.0522 14.2279 16.0426C14.4254 16.019 14.6147 15.9718 14.807 15.8971C15.0136 15.8164 15.2068 15.7068 15.3743 15.5757L15.3829 15.5833L15.7797 15.1947C16.066 14.9077 16.0743 14.4493 15.7982 14.1723Z" fill="white"/>
</g>
<defs>
<clipPath id="clip0_1905_23008">
<rect width="9" height="8.98907" fill="white" transform="translate(7 7.05957)"/>
</clipPath>
</defs>
</svg>
