<svg width="23" height="24" viewBox="0 0 23 24" fill="none" xmlns="http://www.w3.org/2000/svg">
<ellipse cx="11.5" cy="11.8415" rx="11.5" ry="11.486" fill="#CA0100"/>
<g clip-path="url(#clip0_1905_23020)">
<path d="M11.4994 6.34814C9.30274 6.34814 7.51562 8.13309 7.51562 10.3271C7.51562 13.0499 11.0807 17.0471 11.2325 17.2159C11.3751 17.3745 11.624 17.3743 11.7663 17.2159C11.9181 17.0471 15.4832 13.0499 15.4832 10.3271C15.4831 8.13309 13.6961 6.34814 11.4994 6.34814ZM11.4994 12.329C10.3942 12.329 9.49509 11.4309 9.49509 10.3271C9.49509 9.22321 10.3942 8.32518 11.4994 8.32518C12.6046 8.32518 13.5037 9.22323 13.5037 10.3271C13.5037 11.4309 12.6046 12.329 11.4994 12.329Z" fill="white"/>
</g>
<defs>
<clipPath id="clip0_1905_23020">
<rect width="11" height="10.9866" fill="white" transform="translate(6 6.34814)"/>
</clipPath>
</defs>
</svg>
