<svg width="27" height="23" viewBox="0 0 27 23" fill="none" xmlns="http://www.w3.org/2000/svg">
<path d="M26.6689 3.17397C25.6689 3.66697 24.6689 3.84097 23.4959 4.00097C24.6689 3.33397 25.4959 2.33397 25.8289 1.00097C24.8239 1.60897 23.6529 2.07197 22.4059 2.32297L22.3359 2.33497C21.3049 1.32097 19.8959 0.688969 18.3399 0.667969H18.3359C15.4959 0.667969 13.0029 3.17497 13.0029 6.17497C13.0029 6.66797 13.0029 7.00197 13.1759 7.33497C8.59791 7.15697 4.55691 4.99797 1.86491 1.69597L1.84291 1.66797C1.41791 2.39397 1.16691 3.26597 1.16691 4.19697C1.16691 4.30597 1.16991 4.41497 1.17691 4.52297L1.17591 4.50797C1.20991 6.38597 2.18491 8.02897 3.64891 8.98897L3.66991 9.00197C2.82991 9.00197 2.00291 8.66897 1.16291 8.33497C1.16291 11.002 3.00291 13.175 5.49591 13.668C5.00291 13.841 4.49591 13.841 4.00291 13.841C3.66991 13.841 3.33591 13.841 3.00291 13.668C3.66991 15.841 5.66991 17.508 8.17591 17.508C6.37591 18.963 4.05991 19.843 1.53891 19.843C1.46791 19.843 1.39691 19.842 1.32591 19.841H1.33691H0.00390625C2.36891 21.35 5.23991 22.27 8.31991 22.334H8.33691C18.3369 22.334 23.8439 14.001 23.8439 6.82697V6.15997C24.9909 5.36997 25.9369 4.37297 26.6469 3.21597L26.6709 3.17397H26.6689Z" fill="white"/>
</svg>
