<svg width="27" height="27" viewBox="0 0 27 27" fill="none" xmlns="http://www.w3.org/2000/svg">
<path d="M13.286 0C5.943 0.027 0 5.986 0 13.333C0 18.932 3.452 23.726 8.343 25.701L8.432 25.733C8.299 24.68 8.205 23.066 8.472 21.906L10.032 15.279C10.032 15.279 9.632 14.479 9.632 13.306C9.632 11.453 10.712 10.079 12.059 10.079C13.192 10.079 13.752 10.932 13.752 11.946C13.752 13.093 13.019 14.799 12.632 16.386C12.312 17.719 13.299 18.799 14.619 18.799C16.992 18.799 18.806 16.306 18.806 12.706C18.806 9.506 16.513 7.293 13.233 7.293C13.157 7.289 13.069 7.287 12.98 7.287C9.791 7.287 7.207 9.872 7.207 13.06C7.207 13.062 7.207 13.064 7.207 13.066C7.207 14.213 7.647 15.439 8.194 16.106C8.301 16.239 8.314 16.359 8.274 16.493L7.901 18C7.848 18.24 7.701 18.307 7.461 18.187C5.781 17.4 4.741 14.987 4.741 13.014C4.741 8.814 7.808 4.961 13.568 4.961C18.181 4.961 21.795 8.241 21.795 12.654C21.795 17.254 18.888 20.947 14.862 20.947C13.529 20.947 12.249 20.24 11.822 19.414L10.982 22.574C10.551 23.911 9.99 25.072 9.294 26.137L9.328 26.081C10.498 26.453 11.844 26.668 13.239 26.668C20.603 26.668 26.572 20.698 26.572 13.335C26.572 5.988 20.63 0.0289999 13.29 0.00199986H13.287L13.286 0Z" fill="white"/>
</svg>
