<svg width="32" height="32" viewBox="0 0 32 32" fill="none" xmlns="http://www.w3.org/2000/svg">
<g clip-path="url(#clip0_32_2381)">
<path d="M17.6404 0C20.521 0 21.1296 0.0324153 22.6011 0.0960455C24.2971 0.176484 25.4662 0.447813 26.4744 0.848803C27.5306 1.24859 28.4272 1.80926 29.307 2.68928C30.2036 3.5693 30.7474 4.46612 31.1639 5.52262C31.5635 6.5311 31.8204 7.69926 31.8996 9.41247C31.98 10.9336 31.9956 11.5255 31.9956 14.7274V17.2882C31.9956 20.4901 31.98 21.082 31.8996 22.6031C31.872 24.0018 31.6044 25.3284 31.1362 26.5578L31.1627 26.4774C30.7462 27.5339 30.2024 28.4307 29.3226 29.3107C28.426 30.2076 27.5306 30.7514 26.4744 31.168C25.4662 31.5678 24.2983 31.8247 22.6011 31.904C21.0804 31.9844 20.473 32 17.2719 32H14.7273C11.5262 32 10.9345 31.9844 9.39813 31.904C7.99981 31.8763 6.67351 31.6086 5.44443 31.1404L5.52485 31.1668C4.417 30.743 3.47239 30.1175 2.69341 29.3263L2.69221 29.3251C1.89283 28.5424 1.26149 27.5915 0.853393 26.529L0.835389 26.475C0.394889 25.3272 0.127229 23.9994 0.0996225 22.6127V22.6007C0.0360081 21.3497 0 19.8838 0 18.4107C0 18.1394 0.00120001 17.8681 0.00360055 17.598V17.6388V14.3576C0.00360055 11.4763 0.0360081 10.8676 0.0996225 9.39566C0.180041 7.69926 0.451302 6.5299 0.835389 5.52142C1.25188 4.46492 1.79561 3.5681 2.69221 2.68808C3.46638 1.8873 4.4134 1.2594 5.47324 0.864411L5.52485 0.847602C6.67111 0.402191 7.99741 0.128461 9.38372 0.0960455H9.39813C10.8709 0.0324153 11.4782 0 14.3588 0H17.6404ZM17.6728 2.88137H14.3276C11.5586 2.88137 10.9669 2.91378 9.52656 2.97741C7.97461 3.04104 7.12601 3.29797 6.56549 3.52127C5.81292 3.80941 5.2848 4.16118 4.72547 4.72184C4.16614 5.28251 3.81326 5.81076 3.5252 6.56232C3.31755 7.12298 3.04509 7.97059 2.98147 9.53973C2.91786 10.9804 2.88545 11.5567 2.88545 14.342V17.6712C2.88545 20.4565 2.91786 21.0328 2.98147 22.4735C3.04509 24.0258 3.30195 24.8746 3.5252 25.4353C3.81326 26.188 4.16494 26.7163 4.72547 27.2758C5.286 27.8352 5.81412 28.1882 6.56549 28.4763C7.12601 28.7008 7.9734 28.9566 9.54216 29.0202C11.0941 29.1006 11.6546 29.1162 15.1114 29.1162H16.8878C20.3602 29.1162 20.9051 29.1006 22.4727 29.0202C24.0246 28.9566 24.8732 28.6996 25.4338 28.4763C26.1863 28.1882 26.7144 27.8364 27.2738 27.2758C27.8331 26.7151 28.186 26.1868 28.474 25.4353C28.6985 24.8746 28.9542 24.027 29.0178 22.4735C29.0982 20.9043 29.1138 20.3605 29.1138 16.8872V15.126C29.1138 11.6527 29.0982 11.0921 29.0178 9.52292C28.9542 7.97059 28.6973 7.12178 28.474 6.56112C28.2028 5.83957 27.7935 5.22368 27.275 4.72184L27.2738 4.72064C26.7697 4.2008 26.1551 3.7914 25.4674 3.53088L25.4338 3.52007C24.5552 3.18871 23.5397 2.99062 22.4787 2.97621H22.4727C21.2388 2.91378 19.7949 2.87777 18.3414 2.87777C18.1061 2.87777 17.8708 2.87897 17.6356 2.88017H17.6716L17.6728 2.88137ZM16.008 7.7797C20.5462 7.7797 24.2263 11.4594 24.2263 16C24.2263 20.5406 20.5474 24.2203 16.008 24.2203C11.4698 24.2203 7.78976 20.5406 7.78976 16C7.78976 11.4594 11.4686 7.7797 16.008 7.7797ZM16.008 10.6611C13.0602 10.6611 10.6704 13.0514 10.6704 16C10.6704 18.9486 13.0602 21.3389 16.008 21.3389C18.9559 21.3389 21.3456 18.9486 21.3456 16C21.3456 13.0514 18.9559 10.6611 16.008 10.6611ZM24.5384 5.53823C25.5994 5.53823 26.4588 6.39784 26.4588 7.45914C26.4588 8.52045 25.5994 9.38006 24.5384 9.38006C23.4773 9.38006 22.6179 8.52045 22.6179 7.45914C22.6179 6.39784 23.4773 5.53823 24.5384 5.53823Z" fill="#CDE1F0"/>
</g>
<defs>
<clipPath id="clip0_32_2381">
<rect width="31.9956" height="32" fill="white"/>
</clipPath>
</defs>
</svg>
