<svg width="32" height="32" viewBox="0 0 32 32" fill="none" xmlns="http://www.w3.org/2000/svg">
<path d="M16 0C7.15701 0.0323984 0 7.18284 0 15.9988C0 22.7173 4.15716 28.4698 10.0473 30.8397L10.1544 30.8781C9.99428 29.6145 9.88108 27.6778 10.2026 26.2859L12.0813 18.3339C12.0813 18.3339 11.5996 17.3739 11.5996 15.9664C11.5996 13.7429 12.9002 12.0942 14.5224 12.0942C15.8868 12.0942 16.5612 13.1177 16.5612 14.3345C16.5612 15.7108 15.6785 17.7579 15.2124 19.6622C14.827 21.2617 16.0157 22.5577 17.6053 22.5577C20.463 22.5577 22.6476 19.5662 22.6476 15.2464C22.6476 11.4066 19.8862 8.75116 15.9362 8.75116C15.8446 8.74636 15.7387 8.74396 15.6315 8.74396C11.7911 8.74396 8.67921 11.8458 8.67921 15.6712C8.67921 15.6736 8.67921 15.676 8.67921 15.6784C8.67921 17.0547 9.20909 18.5259 9.86783 19.3262C9.99669 19.4858 10.0123 19.6298 9.96417 19.7906L9.51498 21.5989C9.45115 21.8869 9.27412 21.9673 8.9851 21.8233C6.96192 20.879 5.70947 17.9835 5.70947 15.616C5.70947 10.5763 9.40298 5.9529 16.3396 5.9529C21.8949 5.9529 26.2472 9.88871 26.2472 15.184C26.2472 20.7038 22.7464 25.1351 17.8979 25.1351C16.2926 25.1351 14.7512 24.2868 14.2369 23.2956L13.2254 27.0874C12.7063 28.6918 12.0307 30.0849 11.1925 31.3628L11.2335 31.2956C12.6425 31.742 14.2634 32 15.9434 32C24.8117 32 32 24.8364 32 16.0012C32 7.18524 24.8442 0.0347981 16.0048 0.00239971H16.0012L16 0Z" fill="#CDE1F0"/>
</svg>
