<svg width="32" height="32" viewBox="0 0 32 32" fill="none" xmlns="http://www.w3.org/2000/svg">
<path d="M31.9932 3.70128C30.7934 4.42943 29.5936 4.68642 28.1862 4.92274C29.5936 3.9376 30.5858 2.46063 30.9854 0.49183C29.7796 1.38983 28.3746 2.07366 26.8784 2.44438L26.7944 2.46211C25.5574 0.96446 23.8668 0.0310163 21.9999 0H21.9951C18.5876 0 15.5965 3.70276 15.5965 8.13367C15.5965 8.86181 15.5965 9.35512 15.804 9.84695C10.3113 9.58405 5.46279 6.39527 2.23287 1.51832L2.20647 1.47697C1.69655 2.54925 1.39539 3.83716 1.39539 5.21222C1.39539 5.37321 1.39899 5.5342 1.40739 5.69371L1.40619 5.67156C1.44698 8.44531 2.61681 10.872 4.37335 12.2899L4.39855 12.3091C3.3907 12.3091 2.39844 11.8172 1.39059 11.3239C1.39059 15.263 3.59826 18.4724 6.58942 19.2006C5.99791 19.4561 5.3896 19.4561 4.79809 19.4561C4.39855 19.4561 3.9978 19.4561 3.59826 19.2006C4.39855 22.41 6.79819 24.8722 9.80494 24.8722C7.64526 27.0211 4.86648 28.3209 1.84173 28.3209C1.75654 28.3209 1.67135 28.3194 1.58616 28.3179H1.59936H0C2.83758 30.5467 6.28227 31.9055 9.97772 32H9.99811C21.9963 32 28.6037 19.6924 28.6037 9.09665V8.11151C29.9799 6.94471 31.115 5.47217 31.9668 3.76332L31.9956 3.70128H31.9932Z" fill="#CDE1F0"/>
</svg>
